<mxfile host="Electron" modified="2023-07-08T07:19:28.821Z" agent="Mozilla/5.0 (Windows NT 10.0; Win64; x64) AppleWebKit/537.36 (KHTML, like Gecko) draw.io/21.2.1 Chrome/112.0.5615.87 Electron/24.1.2 Safari/537.36" etag="k5QUZ1yIDZIKuAptICGl" version="21.2.1" type="device">
  <diagram name="Page-1" id="DZNfTBTOkv8_wLORwRNV">
    <mxGraphModel dx="1036" dy="1823" grid="1" gridSize="10" guides="1" tooltips="1" connect="1" arrows="1" fold="1" page="1" pageScale="1" pageWidth="827" pageHeight="1169" math="0" shadow="0">
      <root>
        <mxCell id="0" />
        <mxCell id="1" parent="0" />
        <mxCell id="jE7_QVE1kl2_efXZavg2-16" value="" style="whiteSpace=wrap;html=1;aspect=fixed;" vertex="1" parent="1">
          <mxGeometry x="320" y="-510" width="1690" height="1690" as="geometry" />
        </mxCell>
        <mxCell id="jE7_QVE1kl2_efXZavg2-17" value="" style="ellipse;whiteSpace=wrap;html=1;aspect=fixed;" vertex="1" parent="1">
          <mxGeometry x="80" y="360" width="80" height="80" as="geometry" />
        </mxCell>
        <mxCell id="jE7_QVE1kl2_efXZavg2-18" value="" style="endArrow=none;html=1;rounded=0;entryX=0.5;entryY=1;entryDx=0;entryDy=0;" edge="1" parent="1" target="jE7_QVE1kl2_efXZavg2-17">
          <mxGeometry width="50" height="50" relative="1" as="geometry">
            <mxPoint x="120" y="560" as="sourcePoint" />
            <mxPoint x="270" y="430" as="targetPoint" />
            <Array as="points" />
          </mxGeometry>
        </mxCell>
        <mxCell id="jE7_QVE1kl2_efXZavg2-19" value="" style="endArrow=none;html=1;rounded=0;" edge="1" parent="1">
          <mxGeometry width="50" height="50" relative="1" as="geometry">
            <mxPoint x="87.5" y="480" as="sourcePoint" />
            <mxPoint x="152.5" y="480" as="targetPoint" />
          </mxGeometry>
        </mxCell>
        <mxCell id="jE7_QVE1kl2_efXZavg2-20" value="" style="endArrow=none;html=1;rounded=0;" edge="1" parent="1">
          <mxGeometry width="50" height="50" relative="1" as="geometry">
            <mxPoint x="70" y="610" as="sourcePoint" />
            <mxPoint x="120" y="560" as="targetPoint" />
          </mxGeometry>
        </mxCell>
        <mxCell id="jE7_QVE1kl2_efXZavg2-21" value="" style="endArrow=none;html=1;rounded=0;" edge="1" parent="1">
          <mxGeometry width="50" height="50" relative="1" as="geometry">
            <mxPoint x="170" y="610" as="sourcePoint" />
            <mxPoint x="120" y="560" as="targetPoint" />
          </mxGeometry>
        </mxCell>
        <mxCell id="jE7_QVE1kl2_efXZavg2-22" value="" style="endArrow=classic;html=1;rounded=0;" edge="1" parent="1">
          <mxGeometry width="50" height="50" relative="1" as="geometry">
            <mxPoint x="170" y="480" as="sourcePoint" />
            <mxPoint x="320" y="480" as="targetPoint" />
            <Array as="points">
              <mxPoint x="230" y="480" />
            </Array>
          </mxGeometry>
        </mxCell>
        <mxCell id="jE7_QVE1kl2_efXZavg2-25" value="" style="edgeStyle=orthogonalEdgeStyle;rounded=0;orthogonalLoop=1;jettySize=auto;html=1;" edge="1" parent="1" target="jE7_QVE1kl2_efXZavg2-24">
          <mxGeometry relative="1" as="geometry">
            <mxPoint x="885" y="90" as="sourcePoint" />
          </mxGeometry>
        </mxCell>
        <mxCell id="jE7_QVE1kl2_efXZavg2-27" value="" style="edgeStyle=orthogonalEdgeStyle;rounded=0;orthogonalLoop=1;jettySize=auto;html=1;" edge="1" parent="1" target="jE7_QVE1kl2_efXZavg2-26">
          <mxGeometry relative="1" as="geometry">
            <mxPoint x="880" y="190" as="sourcePoint" />
          </mxGeometry>
        </mxCell>
        <mxCell id="jE7_QVE1kl2_efXZavg2-29" value="" style="edgeStyle=orthogonalEdgeStyle;rounded=0;orthogonalLoop=1;jettySize=auto;html=1;" edge="1" parent="1" target="jE7_QVE1kl2_efXZavg2-28">
          <mxGeometry relative="1" as="geometry">
            <mxPoint x="895" y="290" as="sourcePoint" />
          </mxGeometry>
        </mxCell>
        <mxCell id="jE7_QVE1kl2_efXZavg2-31" value="" style="edgeStyle=orthogonalEdgeStyle;rounded=0;orthogonalLoop=1;jettySize=auto;html=1;" edge="1" parent="1" target="jE7_QVE1kl2_efXZavg2-30">
          <mxGeometry relative="1" as="geometry">
            <mxPoint x="895" y="400" as="sourcePoint" />
          </mxGeometry>
        </mxCell>
        <mxCell id="jE7_QVE1kl2_efXZavg2-33" value="" style="edgeStyle=orthogonalEdgeStyle;rounded=0;orthogonalLoop=1;jettySize=auto;html=1;" edge="1" parent="1" target="jE7_QVE1kl2_efXZavg2-32">
          <mxGeometry relative="1" as="geometry">
            <mxPoint x="895" y="500" as="sourcePoint" />
          </mxGeometry>
        </mxCell>
        <mxCell id="jE7_QVE1kl2_efXZavg2-35" value="" style="edgeStyle=orthogonalEdgeStyle;rounded=0;orthogonalLoop=1;jettySize=auto;html=1;" edge="1" parent="1" target="jE7_QVE1kl2_efXZavg2-34">
          <mxGeometry relative="1" as="geometry">
            <mxPoint x="895" y="625" as="sourcePoint" />
          </mxGeometry>
        </mxCell>
        <mxCell id="jE7_QVE1kl2_efXZavg2-37" value="" style="edgeStyle=orthogonalEdgeStyle;rounded=0;orthogonalLoop=1;jettySize=auto;html=1;" edge="1" parent="1" target="jE7_QVE1kl2_efXZavg2-36">
          <mxGeometry relative="1" as="geometry">
            <mxPoint x="900" y="810" as="sourcePoint" />
          </mxGeometry>
        </mxCell>
        <mxCell id="jE7_QVE1kl2_efXZavg2-39" value="" style="edgeStyle=orthogonalEdgeStyle;rounded=0;orthogonalLoop=1;jettySize=auto;html=1;" edge="1" parent="1" target="jE7_QVE1kl2_efXZavg2-38">
          <mxGeometry relative="1" as="geometry">
            <mxPoint x="915" y="920" as="sourcePoint" />
          </mxGeometry>
        </mxCell>
        <mxCell id="jE7_QVE1kl2_efXZavg2-40" value="&lt;font style=&quot;font-size: 43px;&quot;&gt;&lt;b&gt;Login&lt;/b&gt;&lt;/font&gt;" style="ellipse;whiteSpace=wrap;html=1;" vertex="1" parent="1">
          <mxGeometry x="800" y="-300" width="210" height="110" as="geometry" />
        </mxCell>
        <mxCell id="jE7_QVE1kl2_efXZavg2-41" value="&lt;font style=&quot;font-size: 31px;&quot;&gt;&lt;b&gt;Insert Result&lt;/b&gt;&lt;/font&gt;" style="ellipse;whiteSpace=wrap;html=1;" vertex="1" parent="1">
          <mxGeometry x="800" y="-170" width="210" height="110" as="geometry" />
        </mxCell>
        <mxCell id="jE7_QVE1kl2_efXZavg2-42" value="&lt;font style=&quot;font-size: 20px;&quot;&gt;&lt;b&gt;See Student Details&lt;/b&gt;&lt;/font&gt;" style="ellipse;whiteSpace=wrap;html=1;" vertex="1" parent="1">
          <mxGeometry x="800" y="-40" width="210" height="110" as="geometry" />
        </mxCell>
        <mxCell id="jE7_QVE1kl2_efXZavg2-43" value="&lt;font style=&quot;font-size: 22px;&quot;&gt;&lt;b&gt;Check Notice&lt;/b&gt;&lt;/font&gt;" style="ellipse;whiteSpace=wrap;html=1;" vertex="1" parent="1">
          <mxGeometry x="800" y="1030" width="210" height="110" as="geometry" />
        </mxCell>
        <mxCell id="jE7_QVE1kl2_efXZavg2-44" value="&lt;font style=&quot;font-size: 22px;&quot;&gt;&lt;b&gt;Print Admit card&lt;/b&gt;&lt;/font&gt;" style="ellipse;whiteSpace=wrap;html=1;" vertex="1" parent="1">
          <mxGeometry x="800" y="880" width="210" height="110" as="geometry" />
        </mxCell>
        <mxCell id="jE7_QVE1kl2_efXZavg2-45" value="&lt;font style=&quot;font-size: 22px;&quot;&gt;&lt;b&gt;Check Fee&lt;/b&gt;&lt;/font&gt;" style="ellipse;whiteSpace=wrap;html=1;" vertex="1" parent="1">
          <mxGeometry x="800" y="730" width="210" height="110" as="geometry" />
        </mxCell>
        <mxCell id="jE7_QVE1kl2_efXZavg2-46" value="&lt;font style=&quot;font-size: 20px;&quot;&gt;&lt;b&gt;Check Result&lt;/b&gt;&lt;/font&gt;" style="ellipse;whiteSpace=wrap;html=1;" vertex="1" parent="1">
          <mxGeometry x="800" y="570" width="210" height="110" as="geometry" />
        </mxCell>
        <mxCell id="jE7_QVE1kl2_efXZavg2-47" value="&lt;font style=&quot;font-size: 22px;&quot;&gt;&lt;b&gt;Check Course List&lt;/b&gt;&lt;/font&gt;" style="ellipse;whiteSpace=wrap;html=1;" vertex="1" parent="1">
          <mxGeometry x="800" y="420" width="210" height="110" as="geometry" />
        </mxCell>
        <mxCell id="jE7_QVE1kl2_efXZavg2-48" value="&lt;font style=&quot;font-size: 20px;&quot;&gt;&lt;b&gt;Submit Result&lt;/b&gt;&lt;/font&gt;" style="ellipse;whiteSpace=wrap;html=1;" vertex="1" parent="1">
          <mxGeometry x="800" y="250" width="210" height="110" as="geometry" />
        </mxCell>
        <mxCell id="jE7_QVE1kl2_efXZavg2-49" value="&lt;font style=&quot;font-size: 20px;&quot;&gt;&lt;b&gt;Make Gradeshect&lt;/b&gt;&lt;/font&gt;" style="ellipse;whiteSpace=wrap;html=1;" vertex="1" parent="1">
          <mxGeometry x="800" y="100" width="210" height="110" as="geometry" />
        </mxCell>
        <mxCell id="jE7_QVE1kl2_efXZavg2-58" value="&lt;font style=&quot;font-size: 30px;&quot;&gt;CU Orbund&lt;/font&gt;" style="text;html=1;strokeColor=none;fillColor=none;align=center;verticalAlign=middle;whiteSpace=wrap;rounded=0;" vertex="1" parent="1">
          <mxGeometry x="880" y="-420" width="290" height="80" as="geometry" />
        </mxCell>
        <mxCell id="jE7_QVE1kl2_efXZavg2-61" value="&lt;font style=&quot;font-size: 20px;&quot;&gt;Edit&lt;/font&gt;" style="ellipse;whiteSpace=wrap;html=1;rotation=-15;" vertex="1" parent="1">
          <mxGeometry x="1230" y="100" width="120" height="80" as="geometry" />
        </mxCell>
        <mxCell id="jE7_QVE1kl2_efXZavg2-62" value="" style="endArrow=block;dashed=1;endFill=0;endSize=12;html=1;rounded=0;" edge="1" parent="1">
          <mxGeometry width="160" relative="1" as="geometry">
            <mxPoint x="1040" y="290" as="sourcePoint" />
            <mxPoint x="1200" y="290" as="targetPoint" />
          </mxGeometry>
        </mxCell>
      </root>
    </mxGraphModel>
  </diagram>
</mxfile>
